<svg width="24" height="24" viewBox="0 0 24 24" fill="none" xmlns="http://www.w3.org/2000/svg">
<path d="M18.1916 19.385V16.385H15.1916V15.385H18.1916V12.385H19.1916V15.385H22.1916V16.385H19.1916V19.385H18.1916ZM3.42262 20C2.96262 20 2.57829 19.846 2.26962 19.538C1.96095 19.23 1.80695 18.8457 1.80762 18.385V5.615C1.80762 5.155 1.96162 4.771 2.26962 4.463C2.57762 4.155 2.96195 4.00067 3.42262 4H16.1926C16.6526 4 17.0366 4.15433 17.3446 4.463C17.6526 4.77167 17.807 5.156 17.8076 5.616V10H16.8076V7.385H2.80762V18.385C2.80762 18.5643 2.86529 18.7117 2.98062 18.827C3.09595 18.9423 3.24329 19 3.42262 19H15.8076V20H3.42262ZM2.80762 6.385H16.8076V5.615C16.8076 5.43567 16.7496 5.28833 16.6336 5.173C16.519 5.05767 16.3716 5 16.1916 5H3.42262C3.24262 5 3.09529 5.05767 2.98062 5.173C2.86529 5.28833 2.80762 5.436 2.80762 5.616V6.385Z" fill="black"/>
</svg>
