<svg width="18" height="18" viewBox="0 0 18 18" fill="none" xmlns="http://www.w3.org/2000/svg">
<g clip-path="url(#clip0_196_1245)">
<path d="M14.645 17H3.355C3.24338 17.0007 3.13272 16.9793 3.02934 16.9372C2.92596 16.8951 2.83188 16.8331 2.75249 16.7546C2.6731 16.6761 2.60993 16.5828 2.56661 16.4799C2.52329 16.377 2.50065 16.2666 2.5 16.155V3.34501C2.50297 3.22132 2.53213 3.09967 2.58557 2.98808C2.639 2.8765 2.7155 2.77751 2.81 2.69765C2.9045 2.6178 3.01486 2.5589 3.1338 2.52483C3.25274 2.49076 3.37755 2.4823 3.5 2.50001H4.5V3.50001H3.5V16H14.5V3.50001H13.5V2.50001H14.625C14.7383 2.49667 14.8511 2.51603 14.9568 2.55694C15.0625 2.59784 15.159 2.65948 15.2405 2.73821C15.322 2.81694 15.387 2.91118 15.4315 3.01539C15.4761 3.1196 15.4994 3.23167 15.5 3.34501V16.155C15.4993 16.2666 15.4767 16.377 15.4334 16.4799C15.3901 16.5828 15.3269 16.6761 15.2475 16.7546C15.1681 16.8331 15.074 16.8951 14.9707 16.9372C14.8673 16.9793 14.7566 17.0007 14.645 17Z" fill="black"/>
<path d="M8.32929 12.88L5.64929 10.2C5.568 10.1038 5.52604 9.98043 5.53177 9.8546C5.5375 9.72877 5.59052 9.60974 5.68021 9.52131C5.76991 9.43288 5.88968 9.38156 6.01558 9.37761C6.14148 9.37366 6.26422 9.41737 6.35929 9.50001L8.32929 11.47L12.6493 7.15001C12.7449 7.0681 12.868 7.0253 12.9938 7.03016C13.1197 7.03502 13.239 7.08719 13.3281 7.17623C13.4171 7.26528 13.4693 7.38465 13.4741 7.51049C13.479 7.63633 13.4362 7.75936 13.3543 7.85501L8.32929 12.88Z" fill="black"/>
<path d="M13 5.49998H5V3.66498C5.00132 3.35641 5.12448 3.06085 5.34267 2.84266C5.56087 2.62446 5.85643 2.5013 6.165 2.49998H7.06C7.17015 2.06978 7.42035 1.68847 7.77115 1.41616C8.12196 1.14386 8.55341 0.996063 8.9975 0.996063C9.44158 0.996063 9.87304 1.14386 10.2238 1.41616C10.5746 1.68847 10.8248 2.06978 10.935 2.49998H11.83C12.1394 2.49998 12.4363 2.62256 12.6556 2.8409C12.8748 3.05924 12.9987 3.35555 13 3.66498V5.49998ZM6 4.49998H12V3.66498C12 3.62122 11.9826 3.57926 11.9517 3.54831C11.9207 3.51737 11.8788 3.49998 11.835 3.49998H10V2.99998C10 2.73477 9.89464 2.48041 9.70711 2.29288C9.51957 2.10534 9.26522 1.99998 9 1.99998C8.73478 1.99998 8.48043 2.10534 8.29289 2.29288C8.10536 2.48041 8 2.73477 8 2.99998V3.49998H6.165C6.14333 3.49998 6.12188 3.50425 6.10186 3.51254C6.08184 3.52084 6.06365 3.53299 6.04833 3.54831C6.03301 3.56363 6.02085 3.58182 6.01256 3.60184C6.00427 3.62186 6 3.64332 6 3.66498V4.49998Z" fill="black"/>
</g>
<defs>
<clipPath id="clip0_196_1245">
<rect width="18" height="18" fill="white"/>
</clipPath>
</defs>
</svg>
