
<svg width="20" height="20" viewBox="0 0 20 20" fill="none" xmlns="http://www.w3.org/2000/svg">
  <path d="M1.66669 15C1.66669 13.7163 1.66669 13.0744 1.95563 12.6029C2.11731 12.3391 2.33913 12.1173 2.60296 11.9556C3.07447 11.6667 3.71632 11.6667 5.00002 11.6667C6.28372 11.6667 6.92557 11.6667 7.39708 11.9556C7.66091 12.1173 7.88273 12.3391 8.04441 12.6029C8.33335 13.0744 8.33335 13.7163 8.33335 15C8.33335 16.2837 8.33335 16.9255 8.04441 17.397C7.88273 17.6609 7.66091 17.8827 7.39708 18.0444C6.92557 18.3333 6.28372 18.3333 5.00002 18.3333C3.71632 18.3333 3.07447 18.3333 2.60296 18.0444C2.33913 17.8827 2.11731 17.6609 1.95563 17.397C1.66669 16.9255 1.66669 16.2837 1.66669 15Z" stroke="black"/>
  <path d="M11.6667 15C11.6667 13.7163 11.6667 13.0744 11.9556 12.6029C12.1173 12.3391 12.3391 12.1173 12.603 11.9556C13.0745 11.6667 13.7163 11.6667 15 11.6667C16.2837 11.6667 16.9256 11.6667 17.3971 11.9556C17.6609 12.1173 17.8827 12.3391 18.0444 12.6029C18.3334 13.0744 18.3334 13.7163 18.3334 15C18.3334 16.2837 18.3334 16.9255 18.0444 17.397C17.8827 17.6609 17.6609 17.8827 17.3971 18.0444C16.9256 18.3333 16.2837 18.3333 15 18.3333C13.7163 18.3333 13.0745 18.3333 12.603 18.0444C12.3391 17.8827 12.1173 17.6609 11.9556 17.397C11.6667 16.9255 11.6667 16.2837 11.6667 15Z" stroke="black"/>
  <path d="M1.66669 4.99999C1.66669 3.71629 1.66669 3.07444 1.95563 2.60293C2.11731 2.3391 2.33913 2.11728 2.60296 1.9556C3.07447 1.66666 3.71632 1.66666 5.00002 1.66666C6.28372 1.66666 6.92557 1.66666 7.39708 1.9556C7.66091 2.11728 7.88273 2.3391 8.04441 2.60293C8.33335 3.07444 8.33335 3.71629 8.33335 4.99999C8.33335 6.28369 8.33335 6.92554 8.04441 7.39705C7.88273 7.66088 7.66091 7.8827 7.39708 8.04438C6.92557 8.33332 6.28372 8.33332 5.00002 8.33332C3.71632 8.33332 3.07447 8.33332 2.60296 8.04438C2.33913 7.8827 2.11731 7.66088 1.95563 7.39705C1.66669 6.92554 1.66669 6.28369 1.66669 4.99999Z" stroke="black"/>
  <path d="M11.6667 4.99999C11.6667 3.71629 11.6667 3.07444 11.9556 2.60293C12.1173 2.3391 12.3391 2.11728 12.603 1.9556C13.0745 1.66666 13.7163 1.66666 15 1.66666C16.2837 1.66666 16.9256 1.66666 17.3971 1.9556C17.6609 2.11728 17.8827 2.3391 18.0444 2.60293C18.3334 3.07444 18.3334 3.71629 18.3334 4.99999C18.3334 6.28369 18.3334 6.92554 18.0444 7.39705C17.8827 7.66088 17.6609 7.8827 17.3971 8.04438C16.9256 8.33332 16.2837 8.33332 15 8.33332C13.7163 8.33332 13.0745 8.33332 12.603 8.04438C12.3391 7.8827 12.1173 7.66088 11.9556 7.39705C11.6667 6.92554 11.6667 6.28369 11.6667 4.99999Z" stroke="black"/>
</svg>

