<svg width="736" height="727" viewBox="0 0 736 727" fill="none" xmlns="http://www.w3.org/2000/svg">
<g opacity="0.9">
<rect width="736" height="726.187" rx="44.2707" fill="white"/>
<path d="M215.352 250.262V201.922C215.352 179.038 233.902 160.488 256.786 160.488H302.823" stroke="#8E8E93" stroke-width="16.3556" stroke-linecap="round"/>
<path d="M215.352 383.773V432.112C215.352 454.996 233.902 473.546 256.786 473.546H302.823" stroke="#8E8E93" stroke-width="16.3556" stroke-linecap="round"/>
<path d="M526.109 250.262V201.922C526.109 179.038 507.559 160.488 484.675 160.488H438.637" stroke="#8E8E93" stroke-width="16.3556" stroke-linecap="round"/>
<path d="M526.109 383.773V432.112C526.109 454.996 507.559 473.546 484.675 473.546H438.637" stroke="#8E8E93" stroke-width="16.3556" stroke-linecap="round"/>
<path d="M422.513 382.923L415.595 385.998C387.026 398.695 354.415 398.695 325.846 385.998L318.928 382.923" stroke="#8E8E93" stroke-width="16.3556" stroke-linecap="round"/>
<path d="M377.563 267.828V324.61C377.563 333.307 371.478 340.819 362.969 342.624L355.756 344.154" stroke="#8E8E93" stroke-width="16.3556" stroke-linecap="round"/>
<path d="M305.117 267.828L305.117 295.087" stroke="#8E8E93" stroke-width="16.3556" stroke-linecap="round"/>
<path d="M438.623 267.828L438.623 295.087" stroke="#8E8E93" stroke-width="16.3556" stroke-linecap="round"/>
<path d="M300.044 615.402H305.4V603.174H317.961V598.814H305.4V589.949H319.144V585.444H300.044V615.402ZM327.824 615.776C328.834 615.776 329.762 615.638 330.606 615.361C331.45 615.084 332.198 614.683 332.848 614.157C333.512 613.631 334.052 613.008 334.467 612.288H334.82V615.402H339.928V599.894C339.928 598.302 339.575 596.939 338.869 595.804C338.163 594.655 337.132 593.783 335.775 593.188C334.419 592.579 332.758 592.274 330.793 592.274C329.007 592.274 327.429 592.537 326.059 593.063C324.689 593.589 323.589 594.33 322.758 595.285C321.928 596.24 321.429 597.354 321.263 598.627L321.243 598.814H326.121L326.142 598.731C326.405 597.984 326.91 597.409 327.658 597.008C328.405 596.593 329.367 596.385 330.544 596.385C331.955 596.385 333.021 596.69 333.741 597.299C334.46 597.894 334.82 598.759 334.82 599.894V607.077C334.82 607.977 334.585 608.786 334.114 609.506C333.644 610.212 333 610.773 332.184 611.188C331.367 611.603 330.44 611.811 329.402 611.811C328.253 611.811 327.305 611.541 326.557 611.001C325.824 610.461 325.457 609.707 325.457 608.738V608.696C325.457 607.755 325.803 607.022 326.495 606.496C327.187 605.97 328.26 605.665 329.713 605.582L337.374 605.084V601.679L328.986 602.198C326.218 602.351 324.087 603.008 322.592 604.171C321.111 605.333 320.371 606.925 320.371 608.946V608.987C320.371 610.371 320.689 611.575 321.326 612.6C321.976 613.61 322.862 614.392 323.983 614.946C325.118 615.499 326.398 615.776 327.824 615.776ZM354.171 615.859C356.095 615.859 357.742 615.541 359.113 614.904C360.483 614.254 361.576 613.347 362.393 612.184C363.223 611.022 363.763 609.672 364.012 608.136L364.033 607.949L359.175 607.97L359.133 608.053C358.815 609.243 358.241 610.143 357.41 610.752C356.594 611.361 355.514 611.665 354.171 611.665C352.995 611.665 351.991 611.368 351.161 610.773C350.331 610.164 349.687 609.292 349.23 608.157C348.787 607.008 348.566 605.631 348.566 604.025V603.984C348.566 602.392 348.787 601.036 349.23 599.915C349.673 598.793 350.31 597.935 351.14 597.34C351.985 596.745 352.995 596.447 354.171 596.447C355.583 596.447 356.704 596.8 357.535 597.506C358.379 598.212 358.919 599.119 359.154 600.226L359.175 600.288H364.054V600.205C363.86 598.627 363.348 597.25 362.517 596.074C361.701 594.883 360.587 593.956 359.175 593.292C357.777 592.614 356.102 592.274 354.151 592.274C351.881 592.274 349.936 592.745 348.317 593.686C346.697 594.614 345.459 595.949 344.6 597.693C343.742 599.437 343.313 601.534 343.313 603.984V604.025C343.313 606.489 343.742 608.607 344.6 610.378C345.459 612.15 346.697 613.506 348.317 614.447C349.936 615.389 351.888 615.859 354.171 615.859ZM376.99 615.859C378.526 615.859 379.875 615.665 381.038 615.278C382.201 614.876 383.183 614.357 383.986 613.721C384.803 613.07 385.446 612.371 385.917 611.624C386.401 610.863 386.733 610.115 386.913 609.382L386.955 609.195H382.055L381.993 609.34C381.827 609.686 381.536 610.053 381.121 610.44C380.706 610.814 380.159 611.139 379.481 611.416C378.816 611.679 378.021 611.811 377.093 611.811C375.903 611.811 374.872 611.548 374 611.022C373.142 610.482 372.477 609.721 372.007 608.738C371.536 607.741 371.301 606.544 371.301 605.146V603.07C371.301 601.617 371.536 600.392 372.007 599.396C372.491 598.385 373.142 597.624 373.958 597.112C374.789 596.586 375.737 596.323 376.803 596.323C377.868 596.323 378.803 596.572 379.605 597.07C380.422 597.569 381.059 598.316 381.515 599.312C381.972 600.309 382.201 601.562 382.201 603.07V605.126L384.65 601.887H368.747V605.354H387.183V603.652C387.183 601.368 386.761 599.375 385.917 597.672C385.073 595.97 383.868 594.648 382.304 593.707C380.754 592.752 378.9 592.274 376.74 592.274C374.595 592.274 372.727 592.766 371.135 593.748C369.543 594.717 368.311 596.088 367.439 597.859C366.581 599.631 366.152 601.707 366.152 604.088V604.108C366.152 606.517 366.588 608.6 367.46 610.357C368.332 612.115 369.571 613.472 371.176 614.427C372.796 615.382 374.733 615.859 376.99 615.859ZM400.827 615.402H406.183V585.444H400.827V615.402ZM411.873 615.402H423.105C426.095 615.402 428.634 614.814 430.724 613.638C432.828 612.447 434.434 610.731 435.541 608.489C436.648 606.233 437.202 603.506 437.202 600.309V600.267C437.202 597.139 436.641 594.468 435.52 592.254C434.413 590.039 432.807 588.351 430.704 587.188C428.614 586.025 426.081 585.444 423.105 585.444H411.873V615.402ZM417.23 610.897V589.949H422.399C424.351 589.949 426.025 590.357 427.423 591.174C428.821 591.991 429.887 593.181 430.62 594.745C431.368 596.295 431.742 598.164 431.742 600.351V600.392C431.742 602.634 431.375 604.537 430.641 606.101C429.922 607.665 428.863 608.856 427.465 609.672C426.067 610.489 424.378 610.897 422.399 610.897H417.23Z" fill="#8E8E93"/>
</g>
</svg>
