<svg width="20" height="20" viewBox="0 0 20 20" fill="none" xmlns="http://www.w3.org/2000/svg">
<path d="M4.5 3C4.10218 3 3.72064 3.15804 3.43934 3.43934C3.15804 3.72064 3 4.10218 3 4.5V6.5C3 6.63261 2.94732 6.75979 2.85355 6.85355C2.75979 6.94732 2.63261 7 2.5 7C2.36739 7 2.24021 6.94732 2.14645 6.85355C2.05268 6.75979 2 6.63261 2 6.5V4.5C2 3.83696 2.26339 3.20107 2.73223 2.73223C3.20107 2.26339 3.83696 2 4.5 2H6.5C6.63261 2 6.75979 2.05268 6.85355 2.14645C6.94732 2.24021 7 2.36739 7 2.5C7 2.63261 6.94732 2.75979 6.85355 2.85355C6.75979 2.94732 6.63261 3 6.5 3H4.5ZM4.5 17C4.10218 17 3.72064 16.842 3.43934 16.5607C3.15804 16.2794 3 15.8978 3 15.5V13.5C3 13.3674 2.94732 13.2402 2.85355 13.1464C2.75979 13.0527 2.63261 13 2.5 13C2.36739 13 2.24021 13.0527 2.14645 13.1464C2.05268 13.2402 2 13.3674 2 13.5V15.5C2 16.163 2.26339 16.7989 2.73223 17.2678C3.20107 17.7366 3.83696 18 4.5 18H6.5C6.63261 18 6.75979 17.9473 6.85355 17.8536C6.94732 17.7598 7 17.6326 7 17.5C7 17.3674 6.94732 17.2402 6.85355 17.1464C6.75979 17.0527 6.63261 17 6.5 17H4.5ZM17 4.5C17 4.10218 16.842 3.72064 16.5607 3.43934C16.2794 3.15804 15.8978 3 15.5 3H13.5C13.3674 3 13.2402 2.94732 13.1464 2.85355C13.0527 2.75979 13 2.63261 13 2.5C13 2.36739 13.0527 2.24021 13.1464 2.14645C13.2402 2.05268 13.3674 2 13.5 2H15.5C16.163 2 16.7989 2.26339 17.2678 2.73223C17.7366 3.20107 18 3.83696 18 4.5V6.5C18 6.63261 17.9473 6.75979 17.8536 6.85355C17.7598 6.94732 17.6326 7 17.5 7C17.3674 7 17.2402 6.94732 17.1464 6.85355C17.0527 6.75979 17 6.63261 17 6.5V4.5ZM15.5 17C15.8978 17 16.2794 16.842 16.5607 16.5607C16.842 16.2794 17 15.8978 17 15.5V13.5C17 13.3674 17.0527 13.2402 17.1464 13.1464C17.2402 13.0527 17.3674 13 17.5 13C17.6326 13 17.7598 13.0527 17.8536 13.1464C17.9473 13.2402 18 13.3674 18 13.5V15.5C18 16.163 17.7366 16.7989 17.2678 17.2678C16.7989 17.7366 16.163 18 15.5 18H13.5C13.3674 18 13.2402 17.9473 13.1464 17.8536C13.0527 17.7598 13 17.6326 13 17.5C13 17.3674 13.0527 17.2402 13.1464 17.1464C13.2402 17.0527 13.3674 17 13.5 17H15.5ZM6 10C6 9.86739 6.05268 9.74021 6.14645 9.64645C6.24021 9.55268 6.36739 9.5 6.5 9.5H13.5C13.6326 9.5 13.7598 9.55268 13.8536 9.64645C13.9473 9.74021 14 9.86739 14 10C14 10.1326 13.9473 10.2598 13.8536 10.3536C13.7598 10.4473 13.6326 10.5 13.5 10.5H6.5C6.36739 10.5 6.24021 10.4473 6.14645 10.3536C6.05268 10.2598 6 10.1326 6 10Z" fill="black"/>
</svg>
