<svg width="20" height="20" viewBox="0 0 20 20" fill="none" xmlns="http://www.w3.org/2000/svg">
<path d="M2.91669 8.33332C2.91669 5.19063 2.91669 3.61928 3.95402 2.64297C4.99135 1.66666 6.66091 1.66666 10 1.66666H10.644C13.3616 1.66666 14.7205 1.66666 15.6641 2.33152C15.9345 2.52201 16.1745 2.74793 16.3769 3.0024C17.0834 3.89055 17.0834 5.16945 17.0834 7.72726V9.84848C17.0834 12.3178 17.0834 13.5524 16.6926 14.5385C16.0643 16.1238 14.7357 17.3743 13.0514 17.9655C12.0037 18.3333 10.6918 18.3333 8.0682 18.3333C6.56898 18.3333 5.81937 18.3333 5.22067 18.1232C4.25818 17.7853 3.49898 17.0707 3.13999 16.1649C2.91669 15.6014 2.91669 14.8959 2.91669 13.4848V8.33332Z" stroke="black" stroke-opacity="0.8" stroke-linejoin="round"/>
<path d="M17.0833 10C17.0833 11.5341 15.8397 12.7778 14.3056 12.7778C13.7507 12.7778 13.0966 12.6806 12.5572 12.8251C12.0779 12.9535 11.7035 13.3279 11.5751 13.8072C11.4306 14.3466 11.5278 15.0007 11.5278 15.5556C11.5278 17.0897 10.2841 18.3333 8.75 18.3333" stroke="black" stroke-opacity="0.8" stroke-linecap="round" stroke-linejoin="round"/>
<path d="M6.66669 5.83331H12.5" stroke="black" stroke-opacity="0.8" stroke-linecap="round" stroke-linejoin="round"/>
<path d="M6.66669 9.16666H9.16669" stroke="black" stroke-opacity="0.8" stroke-linecap="round" stroke-linejoin="round"/>
</svg>
