<svg width="20" height="20" viewBox="0 0 20 20" fill="none" xmlns="http://www.w3.org/2000/svg">
<path d="M6.73642 12.5927C5.88494 13.1192 3.65241 14.1943 5.01217 15.5395C5.6764 16.1967 6.41619 16.6667 7.34627 16.6667H12.6536C13.5837 16.6667 14.3234 16.1967 14.9877 15.5395C16.3474 14.1943 14.1149 13.1192 13.2634 12.5927C11.2667 11.358 8.73313 11.358 6.73642 12.5927Z" stroke="black" stroke-linecap="round" stroke-linejoin="round"/>
<path d="M12.9166 6.25001C12.9166 7.86084 11.6107 9.16668 9.99992 9.16668C8.38909 9.16668 7.08325 7.86084 7.08325 6.25001C7.08325 4.63918 8.38909 3.33334 9.99992 3.33334C11.6107 3.33334 12.9166 4.63918 12.9166 6.25001Z" stroke="black"/>
</svg>
