<svg width="20" height="20" viewBox="0 0 20 20" fill="none" xmlns="http://www.w3.org/2000/svg">
<path d="M6.73618 12.5925C5.8847 13.119 3.65216 14.1941 5.01192 15.5394C5.67616 16.1965 6.41594 16.6665 7.34603 16.6665H12.6533C13.5834 16.6665 14.3232 16.1965 14.9874 15.5394C16.3472 14.1941 14.1147 13.119 13.2632 12.5925C11.2665 11.3578 8.73289 11.3578 6.73618 12.5925Z" stroke="white" stroke-linecap="round" stroke-linejoin="round"/>
<path d="M12.9163 6.24992C12.9163 7.86075 11.6105 9.16659 9.99967 9.16659C8.38884 9.16659 7.08301 7.86075 7.08301 6.24992C7.08301 4.63909 8.38884 3.33325 9.99967 3.33325C11.6105 3.33325 12.9163 4.63909 12.9163 6.24992Z" stroke="white"/>
</svg>
