<svg width="16" height="12" viewBox="0 0 16 12" fill="none" xmlns="http://www.w3.org/2000/svg">
<path d="M10.942 12L10.235 11.306L14.079 7.538H3.827C2.76967 7.538 1.86733 7.17433 1.12 6.447C0.372667 5.71967 -0.000665775 4.827 8.91266e-07 3.769C0.000667558 2.711 0.374001 1.81833 1.12 1.091C1.866 0.363667 2.76833 0 3.827 0H4.289V1H3.827C3.04967 1 2.38433 1.26733 1.831 1.802C1.27767 2.33667 1.00067 2.99233 1 3.769C0.999334 4.54567 1.276 5.20133 1.83 5.736C2.384 6.27067 3.04967 6.538 3.827 6.538H14.079L10.235 2.746L10.942 2.058L16 7.038L10.942 12Z" fill="black"/>
</svg>
